<svg width="109" height="155" viewBox="0 0 109 155" fill="none" xmlns="http://www.w3.org/2000/svg">
<path fill-rule="evenodd" clip-rule="evenodd" d="M39.5002 85C39.5002 82.2386 41.7388 80 44.5002 80H54.5001H62.0002C68.9812 80 75.0075 84.0876 77.8161 90H67.2228L67.2113 90L64.5 90H62.0154C62.0103 90 62.0052 90 62.0001 90H43.802C41.4261 90 39.5001 88.074 39.5001 85.6981C39.5001 85.5867 39.4958 85.4754 39.4871 85.3645C39.4958 85.2441 39.5002 85.1226 39.5002 85ZM54.5 115H46.0139H42C21.2893 115 4.5 98.2107 4.5 77.5V52.5V40H4.50008L4.50009 17.5C4.50009 10.5964 10.0965 5 17.0001 5C23.9036 5 29.5001 10.5964 29.5001 17.5L29.5001 30C29.5001 43.8071 40.693 55 54.5001 55L64.5002 55L67.2114 55C68.9255 55 70.622 55.2548 72.247 55.7496C89.0297 59.0431 102.05 72.8322 104.191 90H104.5V94.8655C104.5 94.9103 104.5 94.9552 104.5 95V102.5C104.5 102.525 104.5 102.55 104.5 102.575V137.5C104.5 144.404 98.9035 150 92 150C85.0964 150 79.5 144.404 79.5 137.5V132.5C79.5 122.835 71.665 115 62 115H54.5Z" fill="#F9A502"/>
</svg>
